# xmcd
#
# Track frame offsets:
#	150
#	16063
#	30582
#	45716
#	57490
#	71605
#	86031
#	103321
#	118606
#	133342
#	148032
#	163817
#	177317
#	191819
#
# Disc length: 2792 seconds
#
# Revision: 0
# Processed by: cddbd v1.5.2PL0 Copyright (c) Steve Scherf et al.
# Submitted via: EasyCDDAExtractor 16.0.6.1
#
DISCID=d10ae60e
DTITLE=Μπέλλου Σωτηρία - Μεγάλες επιτυχίες-Σ. Μπέλλου
DYEAR=1997
DGENRE=Ποικίλη
TTITLE0=Αν είμαι μάννα μου φτωχός [Απ. Χατζηχρήστος-Χ. Βασιλειάδης]
TTITLE1=Καροτσέρη τράβα [Απ. Χατζηχρήστος]
TTITLE2=Η άμαξα μέσ' στη βροχή [Απ. Χατζηχρήστος-Χ. Βασιλειάδης]
TTITLE3=Την ζαχαρένια σου χαλάς [Στ. Βαμβακάρης-Ε. Παπαγιαννοπούλου]
TTITLE4=Αναστενάζω και πονώ [Στ. Βαμβακάρης-Ε. Παπαγιαννοπούλου]
TTITLE5=Πειραιώτισσα [Στ. Βαμβακάρης-Γ. Παναγιώτη]
TTITLE6=Σκαλοπάτι-σκαλοπάτι [Γ. Λαύκας/Σ. Περιστέρης-Χ. Βασιλειάδης]
TTITLE7=Άνοιξα πόρτα στην ζωή [Στ. Βαμβακάρης-Κ. Κινδύνης]
TTITLE8=Το ξερό μου το κεφάλι [Σωτηρία Μπέλλου]
TTITLE9=Απόψε στον δικό σου μαχαλά [Σπύρος Περιστέρης]
TTITLE10=Πειραιάς και Αθήνα [Χρήστος Κολοκοτρώνης]
TTITLE11=Πρόσεξε, πρόσεξε [Τρ. Ντόβας-Χ. Βασιλειάδης]
TTITLE12=Κάντε τόπο να περάσω [Απόστολος Καλδάρας]
TTITLE13=Καρδιά παραπονιάρα [Απ. Χατζηχρήστος-Γ. Λελάκης]
EXTD=
EXTT0=
EXTT1=
EXTT2=
EXTT3=
EXTT4=
EXTT5=
EXTT6=
EXTT7=
EXTT8=
EXTT9=
EXTT10=
EXTT11=
EXTT12=
EXTT13=
PLAYORDER=
